<?xml version="1.0" encoding="utf-8"?>
<!-- Generator: Adobe Illustrator 23.0.6, SVG Export Plug-In . SVG Version: 6.00 Build 0)  -->
<svg version="1.1" id="Layer_1" xmlns="http://www.w3.org/2000/svg" xmlns:xlink="http://www.w3.org/1999/xlink" x="0px" y="0px"
	 viewBox="0 0 1822.6 778.9" style="enable-background:new 0 0 1822.6 778.9;" xml:space="preserve">
<style type="text/css">
	.st0{fill:#9CCC65;}
</style>
<title>estate_houses</title>
<g>
	<g id="Layer_1-2">
		<path d="M472.4,14.1c-9.4-1-19.8-1-29.2-1c-173.5,0-430,89.6-430,271.6c0,69.8,67,95.2,142.4,94.3c57.5-0.9,119.8-17,164.1-40.5
			c6.6-3.8,14.1,5.7,6.6,10.4C252.7,403.6,218.8,462,218.8,521.4c0,32.1,31.1,58.5,69.8,58.5c123.5,0,249.9-49,309.3-93.3
			c7.5-5.7,15.1,6.6,7.5,11.3c-59.4,44.3-189.5,95.2-316.8,95.2c-46.2,0-83-32.1-83-71.7c0-50,29.2-105.6,74.5-151.8
			c-37.7,13.2-83.9,21.7-124.5,22.6C72.6,393.2,0,364,0,284.8C0,93.3,264,0,443.1,0c10.4,0,21.7,0,31.1,0.9S480.9,14.1,472.4,14.1z"
			/>
		<path d="M605.4,487.5c21.7,10.4,50,33,65,55.6c39.6-20.7,95.2-39.6,139.5-55.6c8.5-2.8,12.3,7.5,5.7,11.3
			c-42.4,16-100,37.7-138.6,55.6c1.8,4.5,2.8,9.3,2.8,14.1c0,20.8-16,39.6-42.4,39.6c-10.4,0-18.8-8.5-18.9-18.9
			c0-14.1,16-27.3,40.5-41.5c-12.2-18.9-39.6-39.6-59.4-49C595,496,599.8,484.6,605.4,487.5z M665.8,560.1
			c-20.7,11.3-34,20.7-34,29.2c0.2,3,2.6,5.5,5.7,5.7c18.8,0,29.2-13.2,29.2-26.4C666.9,565.7,666.5,562.8,665.8,560.1L665.8,560.1z
			"/>
		<path d="M829.8,384.7L827,396c98.1-19.8,194.2-33,304.6-36.8c10.4,0,9.4,14.1,0,13.2c-111.3,4.7-207.4,17.9-308.3,37.7
			c-2.8,17-5.7,35.8-5.7,53.8c0,47.1,16,94.3,72.6,100.9c11.3,0.9,7.5,14.1-1.9,13.2c-66-8.5-83.9-61.3-83.9-114.1
			c0.1-17.1,1.7-34.1,4.7-50.9c-33.9,7.5-68.8,15.1-104.7,23.6c-10.4,3.8-13.2-12.3-3.8-13.2c38.7-8.5,75.4-17,111.3-24.5
			c1.9-6.6,2.8-12.2,4.7-17.9C819.5,373.4,832.7,374.3,829.8,384.7z"/>
		<path d="M1027,490.3c0.9-4.7-1-13.2-9.4-13.2c-19.8,0-50,25.5-50,42.4c0,9.4,22.6-3.8,42.4-20.7c7.5-6.6,12.2-3.8,17,0.9
			c17,17,40.5,22.6,58.4,22.6c31.1,0,71.7-16,102.8-34.9c9.4-3.8,14.1,6.6,7.5,11.3c-33,19.8-76.4,36.8-110.3,36.8
			c-24.5,0-49-7.5-68.8-25.5c-31.1,30.2-62.2,34.9-62.2,9.4c0-22.6,37.7-55.6,63.2-55.6c19.8,0,23.6,17.9,22.6,28.3
			C1037.3,497.9,1027,497.9,1027,490.3z"/>
		<path d="M1209.9,384.7l-2.8,11.3c98.1-19.8,194.2-33,304.5-36.8c10.4,0,9.4,14.1,0,13.2c-111.3,4.7-207.4,17.9-308.3,37.7
			c-2.8,17-5.7,35.8-5.7,53.8c0,47.1,16,94.3,72.6,100.9c11.3,0.9,7.6,14.1-1.9,13.2c-66-8.5-83.9-61.3-83.9-114.1
			c0.1-17.1,1.7-34.1,4.7-50.9c-33.9,7.5-68.8,15.1-104.7,23.6c-10.4,3.8-13.2-12.3-3.8-13.2c38.7-8.5,75.4-17,111.3-24.5
			c1.9-6.6,2.8-12.2,4.7-17.9C1199.5,373.4,1212.7,374.3,1209.9,384.7z"/>
		<path d="M1416.4,469.6c-25.5,0-56.6,11.3-56.6,24.5c0,9.4,10.4,14.1,20.7,16c5.7,0.9,4.7,11.3-0.9,11.3c-9.4,1-16,4.7-16,8.5
			c0,7.5,15.1,10.4,47.1,10.4c50,0,152.8-23.6,194.2-52.8c6.6-3.8,14.1,5.6,7.5,11.3c-43.4,30.2-149.9,54.7-201.8,54.7
			c-35.8,0-60.3-6.6-60.3-23.6c0-6.6,7.6-12.2,14.2-14.1c-10.4-2.8-17-11.3-17-21.7c0-20.7,37.7-37.7,68.8-37.7
			C1424,456.4,1424,469.6,1416.4,469.6z"/>
		<path d="M949.1,575.2h35.6V655h93.7v-79.8h35.6v200.3h-35.6v-88.3h-93.7v88.3h-35.6V575.2z"/>
		<path d="M1396.8,775.5h-32.2v-21.8h-0.6c-3.4,7-8.4,13.1-14.7,17.7c-6.6,5-15.6,7.5-26.9,7.5c-9.1,0-16.7-1.5-23.1-4.4
			c-6-2.7-11.3-6.8-15.4-11.9c-4-5.1-6.9-10.9-8.5-17.1c-1.7-6.6-2.6-13.3-2.5-20.1v-85.7h33.9v68.7c0,3.8,0.2,8,0.6,12.6
			c0.4,4.5,1.4,8.8,3,13c1.5,4,4.1,7.5,7.4,10.2c3.3,2.7,8,4.1,14,4.1c4.9,0.1,9.8-0.8,14.3-2.8c3.7-1.8,7-4.4,9.6-7.7
			c2.6-3.2,4.4-7,5.5-11c1.1-4.2,1.7-8.6,1.7-13v-74.1h33.9L1396.8,775.5z"/>
		<path d="M1507.7,677.3c-6.6-9.2-15.5-13.9-26.6-13.9c-4.6,0-9.2,1.2-13.3,3.4c-4.3,2.2-6.5,5.9-6.5,11c-0.2,3.8,1.9,7.4,5.4,9.1
			c4.3,2.2,8.9,3.8,13.6,4.8c5.5,1.3,11.4,2.7,17.7,4.1c6.2,1.4,12.1,3.6,17.7,6.5c5.4,2.9,10.1,7,13.6,12
			c3.6,5.1,5.4,12.1,5.4,20.9c0,8.1-1.7,14.9-5.2,20.5c-3.4,5.5-8.1,10.1-13.6,13.4c-5.8,3.5-12.2,6-18.8,7.3
			c-6.9,1.5-13.9,2.3-20.9,2.3c-9.9,0.1-19.7-1.4-29.1-4.5c-8.9-3-16.8-8.5-23.8-16.4l22.6-21.2c4.1,4.7,8.8,8.7,14,12
			c5,3.1,11.1,4.7,18.2,4.7c2.6,0,5.1-0.3,7.6-0.9c2.6-0.5,5.1-1.5,7.4-2.8c2.2-1.2,4-2.9,5.5-5c1.4-2,2.2-4.5,2.1-6.9
			c0-4.7-1.8-8.2-5.4-10.5c-4.2-2.5-8.8-4.4-13.6-5.5c-5.5-1.4-11.4-2.7-17.7-4c-6.1-1.2-12.1-3.2-17.7-5.9
			c-5.4-2.7-10.1-6.6-13.6-11.5c-3.6-4.9-5.4-11.7-5.4-20.4c0-7.5,1.6-14.1,4.7-19.7c3-5.5,7.2-10.1,12.3-13.7
			c5.3-3.7,11.3-6.4,17.5-7.9c6.6-1.7,13.3-2.6,20.1-2.5c9.2,0,18.2,1.6,26.9,4.7c8.7,3,16.2,8.6,21.5,16L1507.7,677.3z"/>
		<path d="M1588.1,719.5c1.1,10.2,5.1,18.1,11.9,23.8c6.8,5.6,15,8.5,24.6,8.5c8.5,0,15.6-1.7,21.3-5.2c5.8-3.5,10.9-7.9,15.1-13.2
			l24.3,18.4c-7.9,9.8-16.8,16.8-26.6,20.9c-9.7,4.1-20.2,6.3-30.8,6.2c-9.8,0.1-19.6-1.7-28.9-5.1c-17.6-6.3-31.8-19.7-39.2-36.9
			c-7.7-18.8-7.7-39.8,0-58.6c3.7-8.5,9-16.1,15.7-22.5c6.8-6.3,14.8-11.2,23.5-14.4c9.2-3.4,19-5.1,28.9-5.1
			c8.9-0.1,17.7,1.6,25.9,5c7.7,3.2,14.5,8.1,20.1,14.3c5.8,6.7,10.3,14.6,13,23.1c3.1,9.2,4.7,19.7,4.7,31.5v9.3H1588.1z
			 M1657.7,694c-0.2-10-3.3-17.9-9.3-23.6s-14.4-8.6-25.2-8.6c-10.2,0-18.3,2.9-24.2,8.8c-5.9,5.8-9.6,13.7-10.9,23.4L1657.7,694z"
			/>
		<path d="M1795.7,677.3c-6.6-9.2-15.5-13.9-26.6-13.9c-4.6,0-9.2,1.2-13.3,3.4c-4.3,2.2-6.5,5.9-6.5,11c-0.2,3.8,1.9,7.4,5.4,9.1
			c4.3,2.2,8.9,3.8,13.6,4.8c5.5,1.3,11.4,2.7,17.7,4.1c6.2,1.4,12.1,3.6,17.7,6.5c5.4,2.9,10.1,7,13.6,12
			c3.6,5.1,5.4,12.1,5.4,20.9c0,8.1-1.7,14.9-5.2,20.5c-3.4,5.5-8.1,10.1-13.6,13.4c-5.8,3.5-12.2,6-18.8,7.3
			c-6.9,1.5-13.9,2.3-20.9,2.3c-9.9,0.1-19.7-1.4-29.1-4.5c-8.9-3-16.8-8.5-23.8-16.4l22.6-21.2c4.1,4.7,8.8,8.7,14,12
			c5,3.1,11.1,4.7,18.2,4.7c2.6,0,5.1-0.3,7.7-0.9c2.6-0.5,5.1-1.5,7.3-2.8c2.2-1.2,4.1-2.9,5.5-5c1.4-2,2.2-4.5,2.1-6.9
			c0-4.7-1.8-8.2-5.4-10.5c-4.2-2.5-8.8-4.4-13.6-5.5c-5.5-1.4-11.4-2.7-17.7-4c-6.1-1.2-12.1-3.2-17.7-5.9
			c-5.4-2.7-10.1-6.6-13.6-11.5c-3.6-4.9-5.4-11.7-5.4-20.4c-0.2-6.8,1.4-13.6,4.7-19.7c3-5.4,7.2-10.1,12.3-13.7
			c5.3-3.7,11.3-6.4,17.5-7.9c6.6-1.7,13.3-2.6,20.1-2.5c9.2,0,18.3,1.6,26.9,4.7c8.7,3,16.2,8.6,21.5,16L1795.7,677.3z"/>
		<path class="st0" d="M1194,639.4c-92.5,0,0,138.3,0,138.3S1286.5,639.4,1194,639.4z M1194,696.3c-9.5-0.2-17.1-8.1-16.8-17.7
			c0.2-9.2,7.6-16.6,16.8-16.8c9.2,0,16.7,7.7,16.7,17.3S1203.2,696.3,1194,696.3z"/>
	</g>
</g>
</svg>
